HIERARCHY
ROOT hips
{
  OFFSET 0 10.680822821525009 1.3929502295107734
  CHANNELS 6 Xposition Yposition Zposition Yrotation Xrotation Zrotation
  JOINT spine
  {
    OFFSET -7.042017322922631e-31 0.6058489940359625 0
    CHANNELS 3 Yrotation Xrotation Zrotation
    JOINT chest
    {
      OFFSET 0 1.2699794144455032 0
      CHANNELS 3 Yrotation Xrotation Zrotation
      JOINT upperChest
      {
        OFFSET 0 1.217799211677689 0
        CHANNELS 3 Yrotation Xrotation Zrotation
        JOINT neck
        {
          OFFSET 0 1.5248826104153006 0
          CHANNELS 3 Yrotation Xrotation Zrotation
          JOINT head
          {
            OFFSET 0 0.8197772727844447 0
            CHANNELS 3 Yrotation Xrotation Zrotation
            JOINT leftEye
            {
              OFFSET 0.2793952361220866 0.6769952096623495 0.1830357412467788
              CHANNELS 3 Yrotation Xrotation Zrotation
              End Site
              {
                OFFSET 0.2793952361220866 0.6769952096623495 0.1830357412467788
              }
            }
            JOINT rightEye
            {
              OFFSET -0.27939522230689573 0.676995205357064 0.18303631459760622
              CHANNELS 3 Yrotation Xrotation Zrotation
              End Site
              {
                OFFSET -0.27939522230689573 0.676995205357064 0.18303631459760622
              }
            }
          }
        }
        JOINT leftShoulder
        {
          OFFSET 0.41486978509200423 1.1670505408695453 0
          CHANNELS 3 Yrotation Xrotation Zrotation
          JOINT leftUpperArm
          {
            OFFSET 0.9737926108153417 0 0
            CHANNELS 3 Yrotation Xrotation Zrotation
            JOINT leftLowerArm
            {
              OFFSET 2.5269332222665284 0 0
              CHANNELS 3 Yrotation Xrotation Zrotation
              JOINT leftHand
              {
                OFFSET 2.4263782738425914 0 0
                CHANNELS 3 Yrotation Xrotation Zrotation
                JOINT leftIndexProximal
                {
                  OFFSET 0.724320348022514 0.08170607082582437 0.20360061616140124
                  CHANNELS 3 Yrotation Xrotation Zrotation
                  JOINT leftIndexIntermediate
                  {
                    OFFSET 0.36548960630744587 -0.010566596513783999 -0.01414783573280308
                    CHANNELS 3 Yrotation Xrotation Zrotation
                    JOINT leftIndexDistal
                    {
                      OFFSET 0.22502819650693362 -0.007863819831430696 -0.007567681939621526
                      CHANNELS 3 Yrotation Xrotation Zrotation
                      End Site
                      {
                        OFFSET 0.22502819650693362 -0.007863819831430696 -0.007567681939621526
                      }
                    }
                  }
                }
                JOINT leftLittleProximal
                {
                  OFFSET 0.6720322998298205 0.08170601055037707 -0.3230036039466837
                  CHANNELS 3 Yrotation Xrotation Zrotation
                  JOINT leftLittleIntermediate
                  {
                    OFFSET 0.34583592281688713 5.476543019078406e-8 1.3869203337180114e-7
                    CHANNELS 3 Yrotation Xrotation Zrotation
                    JOINT leftLittleDistal
                    {
                      OFFSET 0.19925728062053938 0.003098047439490381 0.0038303983709246925
                      CHANNELS 3 Yrotation Xrotation Zrotation
                      End Site
                      {
                        OFFSET 0.19925728062053938 0.003098047439490381 0.0038303983709246925
                      }
                    }
                  }
                }
                JOINT leftMiddleProximal
                {
                  OFFSET 0.7300436596551069 0.0817073395107144 0.022661722987926763
                  CHANNELS 3 Yrotation Xrotation Zrotation
                  JOINT leftMiddleIntermediate
                  {
                    OFFSET 0.40758254347686607 -0.0000012383587111308714 2.408460318820138e-7
                    CHANNELS 3 Yrotation Xrotation Zrotation
                    JOINT leftMiddleDistal
                    {
                      OFFSET 0.2514490105498507 0.0000013869132886590307 9.738618134136345e-8
                      CHANNELS 3 Yrotation Xrotation Zrotation
                      End Site
                      {
                        OFFSET 0.2514490105498507 0.0000013869132886590307 9.738618134136345e-8
                      }
                    }
                  }
                }
                JOINT leftRingProximal
                {
                  OFFSET 0.7217261161191838 0.08170601902187746 -0.15043395722184966
                  CHANNELS 3 Yrotation Xrotation Zrotation
                  JOINT leftRingIntermediate
                  {
                    OFFSET 0.37808807487521556 0.0000013754022405443322 2.2046919317952884e-7
                    CHANNELS 3 Yrotation Xrotation Zrotation
                    JOINT leftRingDistal
                    {
                      OFFSET 0.21812105442344254 -0.002713483731960231 -0.004991354517454624
                      CHANNELS 3 Yrotation Xrotation Zrotation
                      End Site
                      {
                        OFFSET 0.21812105442344254 -0.002713483731960231 -0.004991354517454624
                      }
                    }
                  }
                }
                JOINT leftThumbProximal
                {
                  OFFSET 0.10793587079521427 -0.1652791240518252 -0.07775251827190094
                  CHANNELS 3 Yrotation Xrotation Zrotation
                  JOINT leftThumbIntermediate
                  {
                    OFFSET 0.40355819082296684 -0.017484006740276614 0.3177776014416309
                    CHANNELS 3 Yrotation Xrotation Zrotation
                    JOINT leftThumbDistal
                    {
                      OFFSET 0.2318764658022603 -0.018510186824293617 0.21396001800186287
                      CHANNELS 3 Yrotation Xrotation Zrotation
                      End Site
                      {
                        OFFSET 0.2318764658022603 -0.018510186824293617 0.21396001800186287
                      }
                    }
                  }
                }
              }
            }
          }
        }
        JOINT rightShoulder
        {
          OFFSET -0.4148697850920044 1.1670505408695453 0
          CHANNELS 3 Yrotation Xrotation Zrotation
          JOINT rightUpperArm
          {
            OFFSET -0.9737926108153414 0 0
            CHANNELS 3 Yrotation Xrotation Zrotation
            JOINT rightLowerArm
            {
              OFFSET -2.5269332222665293 0 0
              CHANNELS 3 Yrotation Xrotation Zrotation
              JOINT rightHand
              {
                OFFSET -2.42637827384259 0 0
                CHANNELS 3 Yrotation Xrotation Zrotation
                JOINT rightIndexProximal
                {
                  OFFSET -0.724320348022514 0.08170607082582437 0.20360061616140124
                  CHANNELS 3 Yrotation Xrotation Zrotation
                  JOINT rightIndexIntermediate
                  {
                    OFFSET -0.36548960630744587 -0.010566596513783999 -0.01414783573280308
                    CHANNELS 3 Yrotation Xrotation Zrotation
                    JOINT rightIndexDistal
                    {
                      OFFSET -0.22502819650693362 -0.007863819831430696 -0.007567681939621526
                      CHANNELS 3 Yrotation Xrotation Zrotation
                      End Site
                      {
                        OFFSET -0.22502819650693362 -0.007863819831430696 -0.007567681939621526
                      }
                    }
                  }
                }
                JOINT rightLittleProximal
                {
                  OFFSET -0.6720322998298205 0.08170601055037707 -0.3230036039466837
                  CHANNELS 3 Yrotation Xrotation Zrotation
                  JOINT rightLittleIntermediate
                  {
                    OFFSET -0.34583592281688713 5.476543019078406e-8 1.3869203337180114e-7
                    CHANNELS 3 Yrotation Xrotation Zrotation
                    JOINT rightLittleDistal
                    {
                      OFFSET -0.19925728062053938 0.003098047439490381 0.0038303983709246925
                      CHANNELS 3 Yrotation Xrotation Zrotation
                      End Site
                      {
                        OFFSET -0.19925728062053938 0.003098047439490381 0.0038303983709246925
                      }
                    }
                  }
                }
                JOINT rightMiddleProximal
                {
                  OFFSET -0.7300436596551069 0.0817073395107144 0.022661722987926763
                  CHANNELS 3 Yrotation Xrotation Zrotation
                  JOINT rightMiddleIntermediate
                  {
                    OFFSET -0.40758254347686607 -0.0000012383587111308714 2.408460318820138e-7
                    CHANNELS 3 Yrotation Xrotation Zrotation
                    JOINT rightMiddleDistal
                    {
                      OFFSET -0.2514490105498507 0.0000013869132886590307 9.738618134136345e-8
                      CHANNELS 3 Yrotation Xrotation Zrotation
                      End Site
                      {
                        OFFSET -0.2514490105498507 0.0000013869132886590307 9.738618134136345e-8
                      }
                    }
                  }
                }
                JOINT rightRingProximal
                {
                  OFFSET -0.7217261161191838 0.08170601902187746 -0.15043395722184966
                  CHANNELS 3 Yrotation Xrotation Zrotation
                  JOINT rightRingIntermediate
                  {
                    OFFSET -0.37808807487521556 0.0000013754022405443322 2.2046919317952884e-7
                    CHANNELS 3 Yrotation Xrotation Zrotation
                    JOINT rightRingDistal
                    {
                      OFFSET -0.21812105442344254 -0.002713483731960231 -0.004991354517454624
                      CHANNELS 3 Yrotation Xrotation Zrotation
                      End Site
                      {
                        OFFSET -0.21812105442344254 -0.002713483731960231 -0.004991354517454624
                      }
                    }
                  }
                }
                JOINT rightThumbProximal
                {
                  OFFSET -0.10793587079521427 -0.1652791240518252 -0.07775251827190094
                  CHANNELS 3 Yrotation Xrotation Zrotation
                  JOINT rightThumbIntermediate
                  {
                    OFFSET -0.40355819082296684 -0.017484006740276614 0.3177776014416309
                    CHANNELS 3 Yrotation Xrotation Zrotation
                    JOINT rightThumbDistal
                    {
                      OFFSET -0.2318764658022603 -0.018510186824293617 0.21396001800186287
                      CHANNELS 3 Yrotation Xrotation Zrotation
                      End Site
                      {
                        OFFSET -0.2318764658022603 -0.018510186824293617 0.21396001800186287
                      }
                    }
                  }
                }
              }
            }
          }
        }
      }
    }
  }
  JOINT leftUpperLeg
  {
    OFFSET 0.8486251390888677 -0.4421577294694363 0
    CHANNELS 3 Yrotation Xrotation Zrotation
    JOINT leftLowerLeg
    {
      OFFSET 0 -4.10147812638609 0
      CHANNELS 3 Yrotation Xrotation Zrotation
      JOINT leftFoot
      {
        OFFSET -0.0002543926476658853 -4.77292286812444 0.007402811231737388
        CHANNELS 3 Yrotation Xrotation Zrotation
        JOINT leftToes
        {
          OFFSET 0 -0.7027875951174846 1.2062924140498823
          CHANNELS 3 Yrotation Xrotation Zrotation
          End Site
          {
            OFFSET 0 -0.7027875951174846 1.2062924140498823
          }
        }
      }
    }
  }
  JOINT rightUpperLeg
  {
    OFFSET -0.8486251390888677 -0.4421577294694363 0
    CHANNELS 3 Yrotation Xrotation Zrotation
    JOINT rightLowerLeg
    {
      OFFSET 0 -4.10147812638609 0
      CHANNELS 3 Yrotation Xrotation Zrotation
      JOINT rightFoot
      {
        OFFSET 0.0002543926476658853 -4.77292286812444 0.007402811231737388
        CHANNELS 3 Yrotation Xrotation Zrotation
        JOINT rightToes
        {
          OFFSET 0 -0.7027875951174846 1.2062924140498823
          CHANNELS 3 Yrotation Xrotation Zrotation
          End Site
          {
            OFFSET 0 -0.7027875951174846 1.2062924140498823
          }
        }
      }
    }
  }
}
MOTION
Frames: 4
Frame Time: 0.03333333333333333
-0.02296529710292816 -0.12743327226963785 0.0666143000125885 -4.298269488826066 -0.331265833561869 -0.048771525259562035 -0.14855234284003008 0.4359030359060191 0.20232381446913117 -0.1194200622200686 -2.3440152968332515 -0.2708354187263716 0 0 0 4.950429761895399 0.9419460073675473 2.8241447816108884 -1.6523577985887916 7.9660772281738454 1.2128749016553693 0 0 0 0 0 0 5.708813521674598 0.807192257093813 -13.01878878740632 -20.213296805107564 9.697108037725071 -61.87524380368925 -15.608279072166631 -2.24763887505035 0.5108357701533979 16.84406096763479 -9.847367663806986 0.10809387406518696 0.5974201687041615 0.02902127158607827 -5.608296640486069 0.8126878888657386 0.05315860954453851 -7.463293900079577 0.8503511263532306 0.059885308617346804 -7.999325974451954 6.173290294988861 2.1045191507140277 -23.66342404969115 -2.3021398388626566 0.32784011686110115 -17.374037112661853 0.8693528961534295 0.0918326931013348 -8.197820028901567 1.1921185937043095 0.11636571940271355 -11.182605958580131 1.2475951196679986 0.12680806163383207 -11.651973112365212 1.0714317835411857 0.0935858261975045 -9.985744592639772 1.8772081841903996 0.2927419808805479 -17.718664907515976 1.5477525875637557 0.1976272464311964 -14.538962995540606 0.6638140545937355 0.035923862541065915 -6.181426446915597 27.54312812889753 1.1309757189982241 11.438362889211623 17.799552336688464 9.191265590855664 5.420470911741147 14.11043717922267 2.189357367440913 4.250084152105917 -1.6923508301308283 1.9248053904373494 19.422566135179103 22.926598343451275 18.472720419442417 57.055681789954676 20.07195721611243 -2.8557088601311733 -0.7672016915897478 -21.405864711068528 -36.47067734595274 6.024510333904607 -0.9728826369377715 0.07638234160793839 8.807033008791166 -2.528222285471404 0.5440224964365914 24.20707432122574 -1.1194392881585464 0.09944449597387751 10.251539152997509 -2.5597112311397514 0.5494241413252715 24.784003088025617 -1.2988342377945676 0.12243799754687643 12.90132575518422 -2.7068543512261205 0.5447715031772629 25.05768482821715 -1.3486215733340576 0.14736867086482142 11.966559736998066 -2.0663040997040847 0.37278173512234514 20.28215023660148 -1.623060081056974 0.20440465007161351 14.740480226718946 -2.0450110594998283 0.3449857080695166 19.313436189631204 -2.173486071330025 0.38456113387392354 20.159454235159167 -1.450693588778132 0.17294095921093036 13.340838175633671 -22.56470814377723 3.4994222949828644 -15.768532274175902 -20.86984801611191 11.076548336502029 -6.334211234849795 -15.16890684937092 6.4383366589424815 -7.511343422064435 6.948130361832246 -4.000985342225898 1.5904082112274862 -0.6236327503614287 13.778221489007601 -0.7226486046061149 0.04104469831480393 -9.465697628065033 -0.8680799377893622 1.7978325619124277e-7 -0.22862480738322444 -1.2493221883569408e-7 -6.873923004833704 -4.7572403714029186 0.8559997029599844 2.4473914427797836 14.225411764212746 -0.048341422216812105 0.0005076004325235985 -9.09312412323333 -0.4669405227147346 -0.000003051075877936256 -0.00005893224833736086 -3.875320134969898e-7
-0.022814374417066574 -0.12746474352207926 0.06615694612264633 -4.295710866373065 -0.32345244986320254 -0.052759579102120195 -0.14733458571665414 0.4369471513235133 0.20333506065997284 -0.11839968174676432 -2.343328715393817 -0.27524158566693024 0 0 0 4.951977952858143 0.9214822960527637 2.843935986822705 -1.636067766929658 7.8974466004186255 1.1760169896662938 0 0 0 0 0 0 5.707873840632447 0.8078259801597485 -13.021854937544232 -20.171964039787927 9.72936152271772 -61.87144446296825 -15.68623728807051 -2.258433796280477 0.5149021447138656 16.89412489742979 -9.813092564443588 0.11521577639831221 0.5974256112159241 0.029007754613297243 -5.608290267833907 0.8126927975725187 0.05314571288785611 -7.463348119347604 0.8503460576276816 0.05989496693699642 -7.9993357498349305 6.17329539136294 2.1045101800400525 -23.66339802440722 -2.30213386717308 0.32785172303660426 -17.374080303873 0.8693581782766326 0.09183185266682228 -8.197799260724103 1.1921269162127752 0.1163508583745379 -11.182590220084661 1.2475951196679986 0.12680806163383207 -11.651973112365212 1.0714317835411857 0.0935858261975045 -9.985744592639772 1.8772182107778665 0.2927338966058179 -17.718662241574467 1.5477493870615786 0.19763028801790475 -14.539006889429276 0.6638140545937355 0.035923862541065915 -6.181426446915597 27.54314340241484 1.130947645720709 11.438376121296947 17.799548574670947 9.191231860609824 5.420502011827255 14.11043552198638 2.1893913297352032 4.250089943694243 -1.7004727285746828 1.9235483537198734 19.407622925866693 22.94300092860173 18.442488695013683 57.075883724085436 19.98434515743431 -2.843977375279822 -0.7617355901811738 -21.366389752414186 -36.47141628897934 5.995524454076335 -0.9728851978916825 0.07636091053635767 8.807017299170461 -2.5282323079984748 0.5440262318646768 24.20709269669306 -1.119438114442095 0.09943271654786168 10.251539152997509 -2.5597110786128123 0.549404983898321 24.783977088201198 -1.2988251687594525 0.1224583013977682 12.901305019334817 -2.7068558437303913 0.5447679812017755 25.0576955561153 -1.3486176257116418 0.14735858563026777 11.96653159368491 -2.066302393230957 0.3727753050034763 20.28214703318529 -1.6230547470785213 0.20440052791949634 14.74044294133296 -2.0450163922831277 0.34496324274324747 19.313420556782653 -2.1734856447406963 0.3845673772343422 20.159468235936327 -1.4506938021541054 0.17293710387174704 13.340860520112978 -22.56472656734451 3.4993972754529774 -15.768503143080311 -20.869835395766337 11.076550946442564 -6.334217719868477 -15.16889599900294 6.438323341459274 -7.511364315001264 6.946694587078605 -4.017074803258753 1.5925212417943306 -0.6266732690733369 13.786985091883642 -0.7233188473389373 0.040881862858335824 -9.466668786512988 -0.8667732934985611 -5.297154352718152e-7 -0.22862160570656262 5.779521637275963e-7 -6.871383230627267 -4.766618575947899 0.8612782191836786 2.4411869737860767 14.22342561059072 -0.050938755879364084 0.0006053080786978119 -9.089088007561148 -0.465200695073573 -0.000005550022933388405 0.00000906898049073971 0.000002206299384767588
-0.022538645192980766 -0.12741896715489176 0.06554026901721954 -4.289322841570562 -0.31088473588818616 -0.05897394629821649 -0.14573366945865907 0.43802832708137135 0.20477095039154322 -0.11703960598871037 -2.3414712728943634 -0.28227443036694644 0 0 0 4.956864172266514 0.8892058359474867 2.8753607490773234 -1.5975279292788551 7.7698503850082385 1.1189809753558475 0 0 0 0 0 0 5.70876152449315 0.8081403068371151 -13.022800979518573 -20.105599841897245 9.778844402917988 -61.87064948183748 -15.811974161515417 -2.2758184961572288 0.521518504236691 16.97897970664653 -9.744662140910595 0.13789482757545407 0.5974165403629803 0.02901100295563332 -5.608302588294626 0.8126888492648922 0.05315015184571572 -7.463324819148202 0.8503453640126053 0.05988443483290345 -7.999345049967687 6.17329156908239 2.104512315914804 -23.663393522728548 -2.3021379193910123 0.3278529770371767 -17.374069506070104 0.8693501217048726 0.09182164739060039 -8.197817493749763 1.1921192338972704 0.11636330481914049 -11.18257196889204 1.2475951196679986 0.12680806163383207 -11.651973112365212 1.0714317835411857 0.0935858261975045 -9.985744592639772 1.8772103175068913 0.29272848040855975 -17.718658988441334 1.5477554680157066 0.19762668613890808 -14.538989503339202 0.6638140545937355 0.035923862541065915 -6.181426446915597 27.54313879428394 1.1309433760207306 11.438365400150266 17.799541397422015 9.191260401586865 5.420489423469727 14.110441322313285 2.1893691154042596 4.250111670913259 -1.7188316474280598 1.92112248476565 19.375552661412677 22.967302690761937 18.3790164933976 57.12186013813367 19.814527058241467 -2.8212067312977585 -0.7511342857664401 -21.283759259498538 -36.478937770816565 5.950628555689127 -0.9728933655652681 0.07637982030539893 8.807049562120469 -2.528228043093357 0.5440268188605191 24.207071363380177 -1.119421682411676 0.09942744715570419 10.251521742308125 -2.5597189077887768 0.5494120278547414 24.78401990446022 -1.2988335976273853 0.12245712745632331 12.901326587407132 -2.7068515794324632 0.5447729439854173 25.057672653856994 -1.3486208264865744 0.14737464730011463 11.96656641878097 -2.066305592868068 0.3727719431985923 20.28214703318529 -1.6230567739903368 0.2044054771700967 14.740430512871189 -2.0450200185757508 0.34498680198683035 19.313460527434767 -2.1734847915620383 0.38456201434782844 20.15944183735561 -1.4506894279466414 0.1729241904865297 13.340824926549342 -22.56471577578637 3.4994158797187276 -15.768517243732445 -20.869859396747405 11.07653180687919 -6.334231554574451 -15.168905190856877 6.438321623074369 -7.511371981378419 6.943705450188583 -4.038590535040871 1.5954976008051038 -0.6310236826456641 13.793048336740087 -0.72413577524754 0.040565508124032146 -9.46454903333615 -0.8646349398245288 -2.490473042362862e-7 -0.22692026150984 -2.2560014697999826e-7 -6.862610066564947 -4.776145125987586 0.872081637367801 2.4163260584276394 14.212265601323244 -0.06459477902868221 0.00029490767620652113 -9.08024208705011 -0.45692896429955143 0.00000388443616446459 -0.000003800894951868155 -4.770952628828796e-7
-0.022274430841207504 -0.12726351824131754 0.06524277478456497 -4.282967693604202 -0.3018347392600713 -0.06223878132877981 -0.14583529380155802 0.4374180211966381 0.2054502495157657 -0.1170767070729369 -2.3390885377252966 -0.2867487064726984 0 0 0 4.963150220603986 0.8719878302894108 2.882442528629186 -1.5609122849531272 7.657780773243919 1.1194534172541055 0 0 0 0 0 0 5.712993061537883 0.8072276388505959 -13.017141762372418 -20.05889311899856 9.808835719476686 -61.878200210923154 -15.89669624061436 -2.287547332503663 0.5259313238945273 17.041816571948594 -9.678989551631032 0.17213882334607014 0.5974195284086593 0.02901472487559962 -5.608300039233829 0.8126976529237782 0.053133596633985494 -7.463293900079577 0.8503451505925818 0.059903611399888666 -7.999333213435016 6.17329751485211 2.1045112479774275 -23.663393522728548 -2.302139412313403 0.3278523366964588 -17.374057078599083 0.8693512955100318 0.09182229439177254 -8.197792500318922 1.1921264894174703 0.11635353976292448 -11.182564430799706 1.2475951196679986 0.12680806163383207 -11.651973112365212 1.0714317835411857 0.0935858261975045 -9.985744592639772 1.8772156507980984 0.29273456362518485 -17.718641683400108 1.5477580284174344 0.1976161873286518 -14.538996114844656 0.6638140545937355 0.035923862541065915 -6.181426446915597 27.54313425134227 1.1309556514081855 11.438376958276473 17.79955622002487 9.19122667134152 5.420481020774133 14.11043552198638 2.1893686882055907 4.250106984650437 -1.7400486240235462 1.9185364469037351 19.33962794735653 23.001340869011894 18.305795760043885 57.17754701179763 19.635629823032918 -2.7972081963468365 -0.7400804289901012 -21.19846101733323 -36.48846064884431 5.919798999595239 -0.9728901063866676 0.0763556744980179 8.807041445871612 -2.5282265503765595 0.5440386655038923 24.20708958174943 -1.1194277643969825 0.09944449597387751 10.251518381727077 -2.5597131503020165 0.54940583771122 24.784024436817823 -1.2988294365406914 0.12246510492205205 12.901316670456279 -2.706847528349404 0.5447612574303963 25.057681834849074 -1.3486168788641562 0.14736390839294827 11.966561407443823 -2.0662983403572657 0.37277447789275076 20.282136239091393 -1.6230578407860272 0.20439519180025234 14.740459541459199 -2.0450200185757508 0.34497340816997313 19.31348534720445 -2.1734835117940503 0.38456732387228737 20.15942665959451 -1.450686227307023 0.17292185593858334 13.340841455861783 -22.564717355560894 3.499407112191144 -15.768517243732445 -20.86983864737699 11.07655355638312 -6.334205182165546 -15.168889364946338 6.438320763881919 -7.511370277739075 6.9395054217347045 -4.04717909883285 1.5955243123661393 -0.6301920997036528 13.785272607572194 -0.7232591857002408 0.04028537791376173 -9.457516462783115 -0.8632994457869829 1.7770825213389654e-7 -0.22599769851811868 -1.2410566565821045e-7 -6.850714546510371 -4.775954071074172 0.8814610377410653 2.3811116482017916 14.193734913204393 -0.08599765536918452 -0.0005238623427293316 -9.0706156632757 -0.4439642455512084 -0.0000016630573882856263 -0.000025395486425161872 0.000001942622954121029
